<?xml version="1.0" encoding="UTF-8"?>
<svg id="Layer_1" xmlns="http://www.w3.org/2000/svg" version="1.1" viewBox="0 0 841.89 595.28">
  <!-- Generator: Adobe Illustrator 29.0.1, SVG Export Plug-In . SVG Version: 2.1.0 Build 192)  -->
  <defs>
    <style>
      .st0 {
        fill: #fdf9e1;
      }

      .st1, .st2, .st3 {
        fill: #61282f;
      }

      .st2 {
        font-size: 117.35px;
      }

      .st2, .st3 {
        font-family: LucidaBright-Demi, 'Lucida Bright';
        font-weight: 300;
      }

      .st3 {
        font-size: 43.81px;
      }

      .st4 {
        fill: #e4c17c;
      }

      .st5 {
        fill: #f5dcab;
      }

      .st6 {
        fill: none;
        stroke: #e4c17c;
        stroke-linecap: round;
        stroke-linejoin: round;
        stroke-width: 3px;
      }
    </style>
  </defs>
  <text class="st3" transform="translate(246.83 314.89)"><tspan x="0" y="0"> </tspan></text>
  <text class="st3" transform="translate(246.83 364.51)"><tspan x="0" y="0">Rawuther Biriyani</tspan></text>
  <text class="st2" transform="translate(241.98 301.93)"><tspan x="0" y="0">KOVAI</tspan></text>
  <path class="st4" d="M523.17,176.83c0-32.28-37.3-64.11-83.3-64.11s-83.3,31.84-83.3,64.11h166.6Z"/>
  <path class="st4" d="M446.87,110.98c0,5.01-4.04,9.08-9.03,9.08s-9.03-4.06-9.03-9.08,4.04-9.08,9.03-9.08,9.03,4.06,9.03,9.08"/>
  <path class="st4" d="M524.3,189.5h-168.87c-1.93,0-3.49-1.56-3.49-3.49s1.56-3.49,3.49-3.49h168.87c1.93,0,3.49,1.56,3.49,3.49s-1.56,3.49-3.49,3.49"/>
  <path class="st5" d="M463.39,129.57c19.34,8.74,34.71,18.69,44.37,38.28,1.35,2.73,5.88.82,4.93-2.08-6.52-19.95-28.1-34.91-47.68-40.04-2.22-.58-3.86,2.83-1.62,3.84"/>
  <path class="st0" d="M524.97,179.21h-170.22c-1.89,0-3.43-1.54-3.43-3.43s1.54-3.43,3.43-3.43h170.22c1.89,0,3.43,1.54,3.43,3.43s-1.54,3.43-3.43,3.43"/>
  <line class="st6" x1="163.12" y1="321.29" x2="726.22" y2="321.29"/>
  <line class="st6" x1="241.82" y1="331.26" x2="162.83" y2="331.26"/>
  <line class="st6" x1="232.44" y1="342.83" x2="162.83" y2="342.83"/>
  <line class="st6" x1="220.71" y1="353.55" x2="162.83" y2="353.55"/>
  <line class="st6" x1="645.75" y1="331.26" x2="725.7" y2="331.26"/>
  <line class="st6" x1="655.24" y1="342.83" x2="725.7" y2="342.83"/>
  <line class="st6" x1="667.11" y1="353.55" x2="725.7" y2="353.55"/>
  <rect class="st6" x="432.77" y="392.58" width="26.08" height="26.08" transform="translate(-156.25 434.04) rotate(-45)"/>
  <path class="st6" d="M462.88,385.26c6.87,1.62,11.89,7.86,14.04,14.58,2.16,6.72.28,13.97.05,21.03"/>
  <line class="st6" x1="476.97" y1="420.87" x2="529.03" y2="420.87"/>
  <line class="st6" x1="502.35" y1="420.76" x2="517.98" y2="420.76"/>
  <path class="st6" d="M517.98,420.76c.19-.46.55-.71.99-.96,3.54-2.03,5.33-6.25,5.61-10.32.18-2.57-.16-5.19-1.2-7.55-1.04-2.36-2.8-4.42-5.07-5.62-1-.53-2.08-.88-3.18-1.14-2.81-.65-5.84-.62-8.51.49-2.67,1.11-4.91,3.4-5.59,6.2-.68,2.81.42,6.06,2.88,7.58.77.47,1.64.77,2.52.98,1.06.25,2.18.36,3.24.08"/>
  <path class="st6" d="M426.83,385.26c-6.87,1.62-11.89,7.86-14.04,14.58-2.16,6.72-.28,13.97-.05,21.03"/>
  <line class="st6" x1="412.73" y1="420.87" x2="360.68" y2="420.87"/>
  <line class="st6" x1="387.36" y1="420.76" x2="371.73" y2="420.76"/>
  <path class="st6" d="M371.73,420.76c-.19-.46-.55-.71-.99-.96-3.54-2.03-5.33-6.25-5.61-10.32-.18-2.57.16-5.19,1.2-7.55,1.04-2.36,2.8-4.42,5.07-5.62,1-.53,2.08-.88,3.18-1.14,2.81-.65,5.84-.62,8.51.49,2.67,1.11,4.91,3.4,5.59,6.2.68,2.81-.42,6.06-2.88,7.58-.77.47-1.63.77-2.52.98-1.06.25-2.18.36-3.24.08"/>
  <path class="st4" d="M354.41,409.46c.51-.12,1,.16,1.14.61.13.45-.13.96-.61,1.14-.49.19-1.03-.08-1.19-.6-.16-.52.15-1.04.66-1.16"/>
  <path class="st4" d="M353.91,404.91c.52,0,.94.4.95.88.02.48-.37.9-.88.95-.52.05-.98-.34-1-.88-.02-.53.4-.96.93-.95"/>
  <path class="st4" d="M354.46,400.37c.51.12.83.6.72,1.07-.08.47-.54.8-1.06.73-.51-.07-.88-.56-.79-1.08.12-.52.62-.84,1.13-.72"/>
  <path class="st4" d="M355.95,396.04c.46.22.68.75.51,1.2-.18.45-.72.67-1.21.49-.49-.18-.72-.72-.52-1.21.19-.5.75-.71,1.23-.48"/>
  <path class="st4" d="M358.27,392.1c.42.31.53.88.25,1.27-.28.39-.82.53-1.27.25-.44-.26-.6-.87-.29-1.3.3-.43.89-.53,1.31-.23"/>
  <path class="st4" d="M361.29,388.66c.35.38.34.94.02,1.3-.33.35-.92.35-1.3,0-.39-.35-.4-.94-.04-1.32.36-.39.97-.37,1.32.02"/>
  <path class="st4" d="M364.9,385.85c.27.44.17,1.01-.23,1.28-.41.25-.96.18-1.28-.24-.31-.41-.24-1.03.21-1.31.44-.29,1.02-.17,1.3.27"/>
  <path class="st4" d="M368.99,383.79c.18.49-.05.99-.48,1.21-.44.2-.98-.02-1.2-.49-.23-.47-.02-1.02.46-1.24.48-.23,1.04.04,1.22.52"/>
  <path class="st4" d="M373.41,382.62c.08.51-.24,1-.72,1.09-.48.07-.95-.22-1.08-.73-.13-.5.19-1.03.71-1.12.52-.1,1.01.24,1.09.76"/>
  <path class="st4" d="M377.98,382.35c-.02.53-.43.9-.91.92-.48.01-.9-.4-.92-.91-.02-.52.38-.95.91-.97.53-.02.94.45.92.96"/>
  <path class="st4" d="M382.53,382.9c-.11.51-.59.85-1.07.76-.48-.1-.81-.57-.74-1.08.07-.52.55-.88,1.07-.77.52.1.85.59.74,1.1"/>
  <path class="st4" d="M386.9,384.25c-.2.49-.72.71-1.17.55-.46-.15-.71-.68-.55-1.17.16-.5.69-.76,1.19-.6.5.18.73.75.53,1.22"/>
  <path class="st4" d="M390.99,386.31c-.28.44-.84.6-1.26.36-.42-.24-.57-.82-.33-1.27.24-.47.81-.63,1.26-.36.46.26.6.84.33,1.28"/>
  <path class="st4" d="M394.65,389.06c-.35.38-.92.43-1.29.11-.38-.3-.44-.87-.12-1.29.32-.41.91-.48,1.33-.16.4.35.43.95.08,1.33"/>
  <path class="st4" d="M534.92,409.46c.5.12.82.64.66,1.16-.16.52-.7.78-1.19.6-.48-.18-.75-.69-.61-1.14.14-.45.63-.73,1.14-.61"/>
  <path class="st4" d="M535.43,404.91c.52,0,.95.42.93.95-.02.53-.48.93-1,.88-.52-.05-.9-.47-.88-.95.02-.48.44-.87.95-.88"/>
  <path class="st4" d="M534.87,400.37c.51-.12,1.01.2,1.13.72.09.52-.28,1.01-.79,1.08-.52.07-.97-.26-1.06-.73-.11-.47.22-.95.72-1.07"/>
  <path class="st4" d="M533.39,396.04c.48-.22,1.04-.01,1.23.48.2.49-.04,1.03-.52,1.21-.49.18-1.03-.04-1.21-.49-.17-.45.05-.99.51-1.2"/>
  <path class="st4" d="M531.06,392.1c.42-.31,1.01-.21,1.31.23.31.43.14,1.03-.29,1.3-.45.27-.99.14-1.27-.25-.28-.39-.17-.96.25-1.27"/>
  <path class="st4" d="M528.05,388.66c.36-.38.97-.41,1.32-.02.37.38.35.97-.04,1.32-.39.35-.97.35-1.3,0-.33-.36-.33-.92.02-1.3"/>
  <path class="st4" d="M524.44,385.85c.27-.44.86-.56,1.3-.27.45.28.52.9.21,1.31-.32.42-.87.49-1.28.24-.4-.27-.51-.84-.23-1.28"/>
  <path class="st4" d="M520.35,383.79c.18-.48.74-.76,1.22-.52.48.22.69.78.47,1.24-.23.47-.77.69-1.2.49-.43-.21-.66-.71-.48-1.21"/>
  <path class="st4" d="M515.92,382.62c.08-.51.56-.85,1.09-.76.53.08.84.61.71,1.12-.13.5-.6.8-1.08.73-.47-.09-.8-.57-.72-1.09"/>
  <path class="st4" d="M511.35,382.35c-.02-.51.39-.98.92-.96.53.02.94.45.91.97-.02.52-.44.93-.92.91-.48-.02-.89-.39-.91-.92"/>
  <path class="st4" d="M506.81,382.9c-.11-.51.22-1,.74-1.1.52-.1,1,.25,1.07.77.07.51-.26.98-.74,1.08-.48.09-.95-.25-1.07-.76"/>
  <path class="st4" d="M502.43,384.25c-.19-.48.04-1.04.53-1.22.5-.17,1.03.1,1.19.6.16.49-.09,1.02-.55,1.17-.46.16-.98-.06-1.17-.55"/>
  <path class="st4" d="M498.34,386.31c-.28-.44-.13-1.01.33-1.28.46-.26,1.02-.1,1.26.36.24.45.09,1.03-.33,1.27-.42.24-.98.08-1.26-.36"/>
  <path class="st4" d="M494.69,389.06c-.35-.38-.32-.98.08-1.33.42-.33,1.01-.25,1.33.16.32.41.26.99-.12,1.29-.36.32-.93.27-1.29-.11"/>
  <g>
    <path class="st1" d="M339.91,483.09c-2.24,0-4.29-.59-6.15-1.77-1.86-1.18-3.32-2.85-4.41-5.01-1.08-2.16-1.62-4.75-1.62-7.77s.46-5.98,1.39-9.02c.93-3.03,2.2-5.93,3.83-8.7,1.62-2.76,3.52-5.24,5.68-7.42,2.16-2.18,4.47-3.9,6.93-5.16,2.45-1.26,4.98-1.88,7.57-1.88.39,0,.96.08,1.71.23.75.16,1.5.62,2.23,1.39-.23-.04-.49-.07-.78-.09-.29-.02-.59-.03-.9-.03-2.01,0-4.04.63-6.09,1.88-2.05,1.26-4,2.95-5.86,5.07-1.85,2.13-3.51,4.53-4.96,7.22-1.45,2.69-2.6,5.48-3.45,8.38-.85,2.9-1.28,5.72-1.28,8.46,0,2.01.27,3.88.81,5.62.54,1.74,1.41,3.14,2.61,4.2,1.2,1.06,2.78,1.59,4.75,1.59,2.12,0,4.12-.64,5.97-1.91,1.86-1.28,3.54-2.99,5.04-5.13,1.51-2.14,2.8-4.54,3.88-7.19,1.08-2.65,1.91-5.37,2.49-8.17.58-2.8.87-5.48.87-8.03,0-1.12-.08-2.33-.23-3.62-.15-1.29-.42-2.41-.78-3.33-.37-.93-.9-1.39-1.59-1.39-.66,0-1.37.42-2.15,1.25-.77.83-1.53,1.88-2.26,3.16-.73,1.28-1.38,2.62-1.94,4.03-.56,1.41-.96,2.68-1.19,3.8-1.31-.27-2.25-.7-2.81-1.28-.56-.58-.84-1.28-.84-2.09,0-1.04.37-2.2,1.1-3.48.73-1.28,1.69-2.5,2.87-3.68,1.18-1.18,2.42-2.15,3.71-2.93,1.29-.77,2.5-1.16,3.62-1.16s2.1.42,2.81,1.25c.71.83,1.27,1.9,1.65,3.22.39,1.31.66,2.72.81,4.2.15,1.49.23,2.87.23,4.15,0,3.94-.48,7.55-1.45,10.81-.97,3.27-2.27,6.16-3.91,8.67-1.64,2.51-3.48,4.64-5.51,6.38-2.03,1.74-4.12,3.05-6.26,3.94s-4.2,1.33-6.17,1.33Z"/>
    <path class="st1" d="M370.4,481.3c-2.01,0-3.66-.63-4.96-1.88-1.3-1.26-1.94-3.18-1.94-5.77,0-1.89.37-3.75,1.1-5.57.73-1.82,1.72-3.45,2.96-4.9,1.24-1.45,2.62-2.6,4.15-3.45,1.53-.85,3.08-1.28,4.67-1.28s2.79.41,3.51,1.22c.71.81,1.07,1.76,1.07,2.84s-.26,2.14-.78,3.16c-.52,1.02-1.23,1.54-2.12,1.54-.73,0-1.33-.37-1.8-1.1.39-.27.79-.77,1.22-1.51.42-.73.64-1.68.64-2.84,0-.31-.08-.55-.23-.72-.15-.17-.44-.26-.87-.26-.97,0-1.98.43-3.04,1.3-1.06.87-2.05,1.99-2.96,3.36-.91,1.37-1.64,2.82-2.2,4.35-.56,1.53-.84,2.93-.84,4.2,0,1.08.28,2.08.84,2.99.56.91,1.65,1.36,3.28,1.36,1.47,0,2.99-.42,4.58-1.28,1.58-.85,3.07-2.04,4.46-3.57,1.39-1.53,2.51-3.35,3.36-5.48l1.16,1.04c-.93,2.36-2.21,4.46-3.86,6.29-1.64,1.84-3.46,3.29-5.45,4.35-1.99,1.06-3.97,1.59-5.94,1.59Z"/>
    <path class="st1" d="M389.88,480.6c-2.47,0-4.38-.67-5.71-2s-2-3-2-5.01c0-1.7.43-3.51,1.3-5.42s2.04-3.71,3.51-5.39c1.47-1.68,3.09-3.04,4.87-4.09,1.78-1.04,3.56-1.57,5.33-1.57,1,0,1.96.26,2.87.78.91.52,1.36,1.56,1.36,3.1s-.43,2.84-1.28,4.12c-.85,1.28-1.99,2.42-3.42,3.42-1.43,1.01-3.01,1.83-4.72,2.46-1.72.64-3.45,1.05-5.19,1.25-.04.16-.07.32-.09.49-.02.17-.03.46-.03.84,0,.19.03.53.09,1.01s.22,1,.49,1.54c.27.54.71,1.01,1.33,1.39.62.39,1.47.58,2.55.58,1.62,0,3.26-.45,4.9-1.36,1.64-.91,3.19-2.12,4.64-3.62,1.45-1.51,2.66-3.19,3.62-5.04l1.16.93c-1.04,2.32-2.39,4.35-4.03,6.09-1.64,1.74-3.46,3.09-5.45,4.06-1.99.97-4.03,1.45-6.12,1.45ZM387.45,470.11c1-.12,2.13-.46,3.36-1.04,1.24-.58,2.42-1.31,3.57-2.2,1.14-.89,2.08-1.86,2.81-2.93.73-1.06,1.1-2.13,1.1-3.22,0-.42-.08-.71-.23-.87-.15-.15-.41-.23-.75-.23-.89,0-1.82.32-2.78.96-.97.64-1.91,1.47-2.84,2.49-.93,1.02-1.76,2.16-2.49,3.39-.73,1.24-1.31,2.46-1.74,3.65Z"/>
    <path class="st1" d="M406.17,480.78c-1.28,0-2.39-.43-3.33-1.28-.95-.85-1.42-2.12-1.42-3.83,0-1.35.31-2.82.93-4.41.62-1.58,1.47-3.15,2.55-4.7,1.08-1.54,2.32-2.95,3.71-4.2,1.39-1.25,2.88-2.27,4.46-3.04,1.58-.77,3.17-1.16,4.75-1.16s3.07.43,4.23,1.28c1.16.85,1.74,1.97,1.74,3.36,0,1.04-.37,1.8-1.1,2.26-.73.46-1.6.6-2.61.41.08-.35.15-.7.2-1.04.06-.35.09-.71.09-1.1,0-.77-.15-1.47-.46-2.09s-.97-.93-1.97-.93c-1.08,0-2.18.37-3.3,1.1-1.12.73-2.19,1.69-3.22,2.87-1.02,1.18-1.94,2.47-2.75,3.88-.81,1.41-1.45,2.79-1.91,4.15-.46,1.35-.7,2.57-.7,3.65,0,1.24.44,1.86,1.33,1.86s1.87-.44,2.96-1.3c1.08-.87,2.17-1.96,3.28-3.28,1.1-1.31,2.15-2.66,3.16-4.03,1-1.37,1.87-2.54,2.61-3.51.12-.19.27-.29.46-.29.15.04.45.13.9.26.44.14.86.34,1.25.61.39.27.58.62.58,1.04,0,.39-.17.88-.49,1.48-.33.6-.72,1.26-1.16,1.97s-.83,1.43-1.16,2.14c-.33.72-.49,1.4-.49,2.06,0,.5.14.98.41,1.42.27.45.71.67,1.33.67.93,0,2.23-.69,3.91-2.06,1.68-1.37,3.39-3.7,5.13-6.99l1.1,1.1c-.93,2.09-2.04,3.93-3.33,5.54-1.3,1.6-2.66,2.86-4.09,3.77-1.43.91-2.88,1.36-4.35,1.36-1.58,0-2.76-.5-3.54-1.51-.77-1-1.2-2.09-1.28-3.25v-.29c-1.55,1.86-2.97,3.32-4.26,4.41-1.29,1.08-2.68,1.62-4.14,1.62Z"/>
    <path class="st1" d="M448.2,479.21c-1.51,0-2.66-.38-3.45-1.13-.79-.75-1.19-1.71-1.19-2.87,0-.77.13-1.59.41-2.46.27-.87.54-1.75.81-2.64.27-.89.41-1.74.41-2.55s-.2-1.44-.61-1.77c-.41-.33-.88-.49-1.42-.49-1.16,0-2.35.47-3.57,1.42-1.22.95-2.4,2.14-3.54,3.57-1.14,1.43-2.21,2.92-3.22,4.46-1,1.55-1.88,2.94-2.61,4.17-.73,0-1.43-.12-2.09-.38-.66-.25-1.22-.69-1.68-1.3.04-.19.26-.78.67-1.77.41-.99.86-2.16,1.36-3.54s.95-2.81,1.33-4.32c.39-1.51.58-2.88.58-4.12.27-.31.69-.62,1.25-.93.56-.31,1.15-.46,1.77-.46,1.35,0,2.03.58,2.03,1.74,0,.46-.09,1.15-.26,2.06s-.42,1.94-.72,3.1c1-1.35,2.11-2.63,3.3-3.83,1.2-1.2,2.44-2.17,3.74-2.93,1.29-.75,2.6-1.13,3.91-1.13,1.66,0,2.89.56,3.68,1.68.79,1.12,1.19,2.36,1.19,3.71,0,1.16-.19,2.24-.58,3.25-.39,1-.76,1.95-1.13,2.84s-.55,1.76-.55,2.61c0,.62.15,1.05.44,1.3.29.25.61.38.96.38.93,0,1.89-.44,2.9-1.33,1-.89,1.96-2.02,2.87-3.39.91-1.37,1.71-2.75,2.41-4.14l.99.81c-.81,1.89-1.73,3.62-2.75,5.19-1.02,1.57-2.17,2.82-3.42,3.77-1.26.95-2.66,1.42-4.2,1.42Z"/>
    <path class="st1" d="M467.91,494.28c-.31,0-.64-.09-.99-.26-.35-.17-.65-.38-.9-.61-.25-.23-.4-.43-.43-.58.97-2.82,1.79-5.27,2.46-7.33.68-2.07,1.25-4.02,1.71-5.86.46-1.84.88-3.75,1.25-5.74.37-1.99.73-4.27,1.1-6.84.37-2.57.78-5.67,1.25-9.3.08-.46.17-.8.29-1.01.12-.21.48-.32,1.1-.32,1.2,0,2.07.32,2.61.96.54.64.81,1.34.81,2.12,0,.39-.07,1.06-.2,2.03-.14.97-.34,2.11-.61,3.42.73-1.12,1.57-2.18,2.52-3.19.95-1,2-1.83,3.16-2.46s2.42-.96,3.77-.96c1.89,0,3.46.64,4.7,1.91,1.24,1.28,1.85,2.96,1.85,5.04,0,1.51-.34,3.1-1.01,4.78-.68,1.68-1.63,3.27-2.87,4.75-1.24,1.49-2.72,2.71-4.46,3.65-1.74.95-3.65,1.42-5.74,1.42-1.24,0-2.22-.16-2.96-.46-.74-.31-1.1-.66-1.1-1.04,0-.27.14-.43.43-.49.29-.06.61-.09.96-.09,1.82-.04,3.47-.43,4.96-1.16,1.49-.73,2.77-1.69,3.86-2.87s1.91-2.44,2.49-3.8c.58-1.35.87-2.69.87-4,0-1.16-.26-2.16-.78-3.01-.52-.85-1.34-1.28-2.46-1.28-.97,0-1.94.31-2.93.93s-1.9,1.4-2.75,2.35c-.85.95-1.6,1.93-2.26,2.96-.66,1.02-1.16,1.92-1.51,2.7-.73,2.55-1.4,5.09-2,7.62-.6,2.53-1.17,4.88-1.71,7.04-.54,2.16-1.09,4-1.65,5.51-.56,1.51-1.17,2.53-1.83,3.07-.31.27-.64.41-.99.41Z"/>
    <path class="st1" d="M505.83,479.56c-1.43,0-2.59-.38-3.48-1.13-.89-.75-1.33-1.77-1.33-3.04,0-1.08.27-2.24.81-3.48.54-1.24,1.09-2.45,1.65-3.65.56-1.2.84-2.26.84-3.19s-.29-1.63-.87-2.23c-.58-.6-1.26-1.09-2.03-1.48-.85,2.13-1.81,4.18-2.87,6.17-1.06,1.99-1.92,3.55-2.58,4.67l-.87-1.68c.54-1,1.26-2.43,2.15-4.29.89-1.85,1.74-3.92,2.55-6.2-.39-.39-.58-.91-.58-1.57,0-1,.31-1.95.93-2.84.62-.89,1.22-1.33,1.8-1.33.46,0,.8.26,1.01.78.21.52.32.88.32,1.07s-.09.54-.26,1.04c-.17.5-.3.87-.38,1.1.04.43.38.84,1.01,1.25.64.41,1.36.88,2.17,1.42.81.54,1.53,1.22,2.14,2.03s.93,1.84.93,3.07c0,1.12-.25,2.26-.75,3.42-.5,1.16-1,2.24-1.51,3.25s-.75,1.88-.75,2.61c0,.54.15.9.43,1.07.29.17.63.26,1.01.26.93,0,1.89-.28,2.9-.84,1-.56,1.99-1.28,2.96-2.17.97-.89,1.82-1.83,2.55-2.81s1.29-1.88,1.68-2.7l1.39,1.04c-.73,1.66-1.8,3.3-3.19,4.9-1.39,1.6-2.94,2.92-4.64,3.94-1.7,1.02-3.42,1.54-5.16,1.54Z"/>
    <path class="st1" d="M520.79,479.79c-1.7,0-2.98-.5-3.83-1.51-.85-1-1.28-2.22-1.28-3.65,0-.89.16-2.01.46-3.36.31-1.35.74-2.77,1.3-4.26.56-1.49,1.21-2.89,1.94-4.2.73-1.31,1.53-2.39,2.38-3.22.85-.83,1.7-1.25,2.55-1.25.46,0,.87.15,1.22.44.35.29.52.71.52,1.25,0,.5-.3,1.26-.9,2.26-.6,1.01-1.29,2.17-2.09,3.48-.79,1.31-1.49,2.68-2.09,4.09-.6,1.41-.9,2.75-.9,4.03s.22,2.06.67,2.46c.44.41,1.09.61,1.94.61,1.31,0,2.74-.66,4.29-1.97,1.54-1.31,3.15-3.61,4.81-6.9l.87.93c-1.35,3.4-3.07,6.05-5.16,7.94s-4.33,2.84-6.73,2.84ZM527.63,453.64c-.74,0-1.4-.18-2-.55s-.9-.94-.9-1.71c0-.93.5-1.72,1.51-2.38,1-.66,2.05-.99,3.13-.99.7,0,1.28.16,1.77.46.48.31.72.87.72,1.68s-.44,1.59-1.33,2.35c-.89.75-1.86,1.13-2.9,1.13Z"/>
    <path class="st1" d="M534.29,479.79c-.73,0-1.48-.18-2.23-.55-.75-.37-1.39-.94-1.91-1.71-.52-.77-.78-1.76-.78-2.96,0-1.28.31-2.71.93-4.29.62-1.58,1.46-3.17,2.52-4.75s2.3-3.03,3.71-4.35c1.41-1.31,2.91-2.38,4.49-3.19,1.58-.81,3.19-1.22,4.81-1.22.89,0,1.58.14,2.09.43s.75.76.75,1.42c0,.19-.04.42-.12.67-.08.25-.27.47-.58.67-.16-.23-.43-.4-.81-.49-.39-.1-.79-.14-1.22-.14-1.28,0-2.49.36-3.65,1.07-1.16.72-2.22,1.63-3.19,2.75-.97,1.12-1.81,2.34-2.52,3.65-.72,1.31-1.27,2.58-1.65,3.8-.39,1.22-.58,2.27-.58,3.16,0,.73.15,1.32.46,1.77.31.44.77.67,1.39.67,1.04,0,2.29-.61,3.74-1.83,1.45-1.22,2.94-2.98,4.46-5.28,1.53-2.3,2.91-5.05,4.14-8.26.85-2.2,1.74-4.45,2.67-6.75.93-2.3,1.86-4.51,2.78-6.64s1.84-4.02,2.75-5.68c.91-1.66,1.78-2.99,2.61-3.97s1.59-1.48,2.29-1.48c.42,0,.8.17,1.13.49.33.33.49.74.49,1.25,0,.66-.32,1.71-.96,3.16s-1.45,3.18-2.43,5.19c-.99,2.01-2.05,4.18-3.19,6.52-1.14,2.34-2.2,4.73-3.19,7.19-.99,2.46-1.8,4.87-2.43,7.25s-.96,4.61-.96,6.7c0,.93.09,1.56.26,1.88.17.33.47.49.9.49.85,0,1.8-.33,2.84-.99,1.04-.66,2.11-1.63,3.19-2.93,1.08-1.29,2.07-2.85,2.96-4.67l1.1.93c-.85,2.13-1.93,4-3.25,5.62-1.31,1.62-2.72,2.89-4.23,3.8-1.51.91-3,1.36-4.46,1.36-1.58,0-2.69-.5-3.3-1.51-.62-1-.93-2.18-.93-3.54,0-.62.05-1.25.15-1.88.1-.64.2-1.27.32-1.88-1.2,1.74-2.46,3.29-3.8,4.67-1.33,1.37-2.64,2.44-3.91,3.22-1.28.77-2.49,1.16-3.65,1.16Z"/>
    <path class="st1" d="M565.48,480.6c-2.47,0-4.38-.67-5.71-2-1.33-1.33-2-3-2-5.01,0-1.7.43-3.51,1.3-5.42.87-1.91,2.04-3.71,3.51-5.39s3.09-3.04,4.87-4.09c1.78-1.04,3.56-1.57,5.33-1.57,1,0,1.96.26,2.87.78s1.36,1.56,1.36,3.1-.43,2.84-1.28,4.12c-.85,1.28-1.99,2.42-3.42,3.42-1.43,1.01-3.01,1.83-4.73,2.46s-3.45,1.05-5.19,1.25c-.04.16-.07.32-.09.49s-.03.46-.03.84c0,.19.03.53.09,1.01.06.48.22,1,.49,1.54.27.54.71,1.01,1.33,1.39.62.39,1.47.58,2.55.58,1.62,0,3.25-.45,4.9-1.36,1.64-.91,3.19-2.12,4.64-3.62,1.45-1.51,2.66-3.19,3.62-5.04l1.16.93c-1.04,2.32-2.39,4.35-4.03,6.09-1.64,1.74-3.46,3.09-5.45,4.06-1.99.97-4.03,1.45-6.12,1.45ZM563.05,470.11c1-.12,2.12-.46,3.36-1.04,1.24-.58,2.43-1.31,3.57-2.2,1.14-.89,2.08-1.86,2.81-2.93.73-1.06,1.1-2.13,1.1-3.22,0-.42-.08-.71-.23-.87-.15-.15-.41-.23-.75-.23-.89,0-1.82.32-2.78.96-.97.64-1.91,1.47-2.84,2.49-.93,1.02-1.76,2.16-2.49,3.39-.73,1.24-1.31,2.46-1.74,3.65Z"/>
  </g>
</svg>